<svg width="27" height="27" viewBox="0 0 27 27" fill="none" xmlns="http://www.w3.org/2000/svg">
<path d="M16.8753 24.75V20.25C17.0318 18.8407 16.6277 17.4264 15.7503 16.3125C19.1253 16.3125 22.5003 14.0625 22.5003 10.125C22.5903 8.71875 22.1965 7.335 21.3753 6.1875C21.6903 4.89375 21.6903 3.54375 21.3753 2.25C21.3753 2.25 20.2503 2.25 18.0003 3.9375C15.0303 3.375 11.9703 3.375 9.00026 3.9375C6.75026 2.25 5.62526 2.25 5.62526 2.25C5.28776 3.54375 5.28776 4.89375 5.62526 6.1875C4.80611 7.33037 4.40854 8.72188 4.50026 10.125C4.50026 14.0625 7.87526 16.3125 11.2503 16.3125C10.8115 16.8638 10.4853 17.4937 10.294 18.1687C10.1028 18.8437 10.0465 19.5525 10.1253 20.25V24.75" stroke="white" stroke-width="0.7" stroke-linecap="round" stroke-linejoin="round"/>
<path d="M10.125 20.25C5.05125 22.5 4.5 18 2.25 18" stroke="white" stroke-width="0.7" stroke-linecap="round" stroke-linejoin="round"/>
</svg>
