<svg width="40" height="40" viewBox="0 0 40 40" fill="none" xmlns="http://www.w3.org/2000/svg">
<rect x="0.5" y="0.5" width="39" height="39" stroke="black"/>
<path d="M18.3333 28.3333L21.6666 31.6666C21.9949 31.9949 22.3846 32.2554 22.8136 32.433C23.2425 32.6107 23.7023 32.7022 24.1666 32.7022C24.6309 32.7022 25.0906 32.6107 25.5196 32.433C25.9485 32.2554 26.3383 31.9949 26.6666 31.6666C26.9949 31.3383 27.2553 30.9486 27.433 30.5196C27.6107 30.0907 27.7021 29.6309 27.7021 29.1666C27.7021 28.7023 27.6107 28.2426 27.433 27.8136C27.2553 27.3847 26.9949 26.9949 26.6666 26.6666" stroke="#A4FF4F" stroke-width="2" stroke-linecap="round" stroke-linejoin="round"/>
<path d="M23.3332 23.3333L27.4999 27.5C28.1629 28.163 29.0622 28.5355 29.9999 28.5355C30.9376 28.5355 31.8368 28.163 32.4999 27.5C33.1629 26.8369 33.5354 25.9377 33.5354 25C33.5354 24.0623 33.1629 23.163 32.4999 22.5L26.0332 16.0333C25.0957 15.097 23.8249 14.5711 22.4999 14.5711C21.1749 14.5711 19.9041 15.097 18.9666 16.0333L17.4999 17.5C16.8368 18.163 15.9376 18.5355 14.9999 18.5355C14.0622 18.5355 13.1629 18.163 12.4999 17.5C11.8368 16.8369 11.4644 15.9377 11.4644 15C11.4644 14.0623 11.8368 13.163 12.4999 12.5L17.1832 7.81665C18.7036 6.30023 20.6864 5.33424 22.8176 5.07161C24.9489 4.80897 27.1068 5.2647 28.9499 6.36665L29.7332 6.83332C30.4429 7.26163 31.2866 7.41018 32.0999 7.24998L34.9999 6.66665" stroke="#A4FF4F" stroke-width="2" stroke-linecap="round" stroke-linejoin="round"/>
<path d="M34.9999 5L36.6666 23.3333H33.3333" stroke="#A4FF4F" stroke-width="2" stroke-linecap="round" stroke-linejoin="round"/>
<path d="M4.99992 5L3.33325 23.3333L14.1666 34.1667C14.8296 34.8297 15.7289 35.2022 16.6666 35.2022C17.6043 35.2022 18.5035 34.8297 19.1666 34.1667C19.8296 33.5036 20.2021 32.6043 20.2021 31.6667C20.2021 30.729 19.8296 29.8297 19.1666 29.1667" stroke="#A4FF4F" stroke-width="2" stroke-linecap="round" stroke-linejoin="round"/>
<path d="M5 6.66663H18.3333" stroke="#A4FF4F" stroke-width="2" stroke-linecap="round" stroke-linejoin="round"/>
</svg>
