<svg width="40" height="40" viewBox="0 0 40 40" fill="none" xmlns="http://www.w3.org/2000/svg">
<path d="M35.7002 18.2034C35.9985 18.0717 36.2517 17.8555 36.4284 17.5814C36.605 17.3073 36.6974 16.9873 36.694 16.6613C36.6907 16.3352 36.5917 16.0172 36.4094 15.7468C36.2271 15.4764 35.9695 15.2655 35.6685 15.14L21.3835 8.63336C20.9492 8.43527 20.4775 8.33276 20.0002 8.33276C19.5228 8.33276 19.0511 8.43527 18.6168 8.63336L4.33349 15.1334C4.03677 15.2633 3.78435 15.4769 3.6071 15.7481C3.42985 16.0192 3.33545 16.3361 3.33545 16.66C3.33545 16.984 3.42985 17.3009 3.6071 17.572C3.78435 17.8431 4.03677 18.0567 4.33349 18.1867L18.6168 24.7C19.0511 24.8981 19.5228 25.0006 20.0002 25.0006C20.4775 25.0006 20.9492 24.8981 21.3835 24.7L35.7002 18.2034Z" stroke="#A4FF4F" stroke-width="2" stroke-linecap="round" stroke-linejoin="round"/>
<path d="M36.6667 16.6666V26.6666" stroke="#A4FF4F" stroke-width="2" stroke-linecap="round" stroke-linejoin="round"/>
<path d="M10 20.8334V26.6667C10 27.9928 11.0536 29.2646 12.9289 30.2022C14.8043 31.1399 17.3478 31.6667 20 31.6667C22.6522 31.6667 25.1957 31.1399 27.0711 30.2022C28.9464 29.2646 30 27.9928 30 26.6667V20.8334" stroke="#A4FF4F" stroke-width="2" stroke-linecap="round" stroke-linejoin="round"/>
</svg>
